<svg width="300" height="300" viewBox="0 0 300 300" fill="none" xmlns="http://www.w3.org/2000/svg">
<g clip-path="url(#clip0_63_30)">
<rect width="300" height="300" rx="75" fill="white"/>
<path d="M104.68 258.53C97.48 258.53 92.08 256.55 88.48 252.59C84.88 248.63 83.08 244.58 83.08 240.44C83.08 235.58 83.98 231.89 85.78 229.37C87.58 226.85 91.09 224.96 96.31 223.7C103.15 222.26 110.26 220.46 117.64 218.3C125.2 216.14 132.4 213.89 139.24 211.55C146.26 209.03 152.38 206.51 157.6 203.99C162.82 201.29 166.6 198.77 168.94 196.43C166.06 194.81 161.47 192.92 155.17 190.76C148.87 188.42 141.85 185.72 134.11 182.66C126.55 179.42 119.26 175.64 112.24 171.32C105.22 167 99.46 161.96 94.96 156.2C90.46 150.44 88.21 143.87 88.21 136.49C88.21 126.23 90.82 116.6 96.04 107.6C101.26 98.6 108.19 90.23 116.83 82.49C125.47 74.75 134.83 67.64 144.91 61.16C155.17 54.68 165.34 48.83 175.42 43.61C185.68 38.21 194.86 33.44 202.96 29.3C206.02 27.5 208.9 26.33 211.6 25.79C214.48 25.07 217.09 24.71 219.43 24.71C227.53 24.71 233.11 26.69 236.17 30.65C239.23 34.61 240.76 38.66 240.76 42.8C240.76 45.68 239.41 49.1 236.71 53.06C234.01 56.84 229.69 60.35 223.75 63.59C217.99 66.83 210.34 69.17 200.8 70.61C199.18 70.79 197.74 70.97 196.48 71.15C189.28 74.75 181.54 79.07 173.26 84.11C164.98 89.15 157.15 94.46 149.77 100.04C142.57 105.44 136.63 110.84 131.95 116.24C127.27 121.64 124.93 126.5 124.93 130.82C124.93 135.68 126.91 140.09 130.87 144.05C134.83 147.83 139.87 151.34 145.99 154.58C152.29 157.64 158.86 160.61 165.7 163.49C172.72 166.37 179.29 169.34 185.41 172.4C191.71 175.28 196.84 178.52 200.8 182.12C204.76 185.72 206.74 189.77 206.74 194.27C206.74 200.39 204.67 206.24 200.53 211.82C196.39 217.4 190.99 222.62 184.33 227.48C177.67 232.16 170.38 236.39 162.46 240.17C154.54 243.95 146.71 247.19 138.97 249.89C131.41 252.77 124.57 254.93 118.45 256.37C112.33 257.81 107.74 258.53 104.68 258.53Z" fill="#67E8F9"/>
</g>
<defs>
<clipPath id="clip0_63_30">
<rect width="300" height="300" fill="white"/>
</clipPath>
</defs>
</svg>
